<svg width="512" height="512" viewBox="0 0 512 512" fill="none" xmlns="http://www.w3.org/2000/svg">
<rect width="512" height="512" fill="white"/>
<path d="M106.26 60.5275C106.26 65.7922 109.43 69.2304 115.447 70.6809L121.947 72.2926C126.083 73.2596 128.017 75.5159 128.017 78.954C128.017 83.3592 124.418 86.099 118.777 86.099C113.513 86.099 109.967 83.4667 109.752 79.4375H105.777C106.26 85.723 111.31 89.6447 118.777 89.6447C126.728 89.6447 131.885 85.4006 131.885 78.7392C131.885 73.5282 128.77 70.09 122.753 68.6395L116.145 67.0278C112.116 66.0071 110.128 63.8583 110.128 60.4738C110.128 56.1223 113.674 53.3288 119.1 53.3288C123.935 53.3288 126.889 55.8 127.319 60.1515H131.241C130.65 53.7049 126.083 49.8369 119.153 49.8369C111.417 49.8369 106.26 54.0809 106.26 60.5275ZM141.742 88.9463V74.8175C141.742 69.8214 144.643 65.6848 150.23 65.6848C154.259 65.6848 157.106 67.8337 157.106 73.9042V89H160.813V73.0984C160.813 66.5443 157.751 62.3003 150.928 62.3003C146.577 62.3003 143.407 64.3955 141.742 67.5113V49.8369H138.035V88.9463H141.742ZM175.669 89.6447C180.074 89.6447 183.619 87.7107 185.231 84.4337L185.714 89H188.83V72.1851C188.83 65.3087 184.425 62.3003 178.408 62.3003C172.015 62.3003 167.718 65.6848 167.718 70.9495H171.102C171.102 67.4576 173.788 65.4162 178.301 65.4162C182.115 65.4162 185.177 67.0278 185.177 72.1314V72.9909L176.582 73.6893C170.511 74.1728 166.858 77.1812 166.858 81.9625C166.858 86.5288 170.135 89.6447 175.669 89.6447ZM176.528 86.6362C172.982 86.6362 170.619 85.0246 170.619 81.855C170.619 78.954 172.606 76.8052 177.495 76.3754L185.177 75.7845V77.1812C185.177 82.822 182.008 86.6362 176.528 86.6362ZM209.86 62.6764C208.947 62.4615 208.249 62.4078 207.443 62.4078C203.79 62.4078 201.05 64.2343 200.029 67.0278L199.761 62.9987H196.269V89H199.975V74.1728C199.975 69.2304 203.038 66.0071 207.819 66.0071H209.86V62.6764ZM223.998 89.6447C228.35 89.6447 232.003 87.7107 233.829 83.6816L234.205 89H237.429V49.8369H233.722V67.9411C231.895 64.1806 228.457 62.3003 224.159 62.3003C216.424 62.3003 211.965 68.2097 211.965 76.0531C211.965 83.8427 216.424 89.6447 223.998 89.6447ZM224.643 86.2602C219.002 86.2602 215.725 81.9625 215.725 75.9456C215.725 69.9825 219.002 65.6311 224.643 65.6311C230.337 65.6311 233.668 69.9825 233.668 75.9456C233.668 81.9625 230.337 86.2602 224.643 86.2602ZM256.069 89.6447C262.194 89.6447 266.223 86.69 267.619 81.2104H264.074C263.107 84.6485 260.367 86.4751 256.123 86.4751C250.536 86.4751 247.205 82.822 246.937 76.4829H267.619V74.6563C267.619 67.2964 262.838 62.3003 255.801 62.3003C248.387 62.3003 243.337 67.8874 243.337 75.9994C243.337 84.1651 248.441 89.6447 256.069 89.6447ZM255.801 65.4699C260.689 65.4699 263.913 68.8007 263.913 73.7968H247.044C247.689 68.6932 250.912 65.4699 255.801 65.4699ZM291.811 62.9987V76.8052C291.811 82.9832 288.857 86.3139 283.861 86.3139C279.724 86.3139 276.984 84.1113 276.984 77.9333V62.945H273.224V79.1152C273.224 85.4544 276.554 89.6447 282.679 89.6447C286.762 89.6447 290.361 87.6032 291.811 84.5948L292.295 89H295.518V62.9987H291.811ZM306.947 89V72.8835C306.947 68.9081 309.579 65.6848 313.93 65.6848C317.852 65.6848 320.377 68.2634 320.377 72.6686V89H324.03V72.9372C324.03 68.9081 326.609 65.6311 330.96 65.6311C334.936 65.6311 337.407 68.2634 337.407 72.7223V89H341.006V71.9702C341.006 65.9534 337.299 62.3003 331.659 62.3003C327.468 62.3003 324.299 64.4492 323.117 67.8337C321.881 64.4492 318.819 62.3003 314.736 62.3003C311.083 62.3003 308.182 63.9657 306.893 66.7055L306.463 62.9987H303.24V89H306.947Z" fill="#1F1F1F"/>
<path d="M63.5033 68.4423C63.5038 67.0954 63.1049 65.7787 62.357 64.6586C61.6091 63.5384 60.5459 62.6653 59.3017 62.1495C58.0575 61.6337 56.6884 61.4984 55.3673 61.7609C54.0463 62.0233 52.8327 62.6716 51.8802 63.6238C50.9276 64.576 50.2788 65.7893 50.0159 67.1102C49.7529 68.4311 49.8876 69.8004 50.4029 71.0447C50.9182 72.2891 51.791 73.3528 52.9108 74.1011C54.0306 74.8494 55.3472 75.2488 56.6941 75.2488C58.4995 75.2488 60.2311 74.5318 61.508 73.2554C62.7849 71.979 63.5026 70.2477 63.5033 68.4423" fill="#1F1F1F"/>
<path d="M71.5882 77.137H87.3877L64.591 37.6516L56.6939 51.3265L48.7968 37.6516L26 77.137H41.7995L56.6939 51.3506L71.5882 77.137Z" fill="#1F1F1F"/>
<path d="M41.8021 77.1289L33.8996 90.8279H79.4932L71.5907 77.1289H41.8021Z" fill="#1F1F1F"/>
</svg>
